# xmcd
#
# Track frame offsets:
# 150
# 14681
# 27816
# 40814
# 53250
# 65123
# 78136
# 91423
# 101420
# 114060
# 127420
# 138574
# 150551
# 160537
# 171497
# 183265
# 195204
# 207035
# 218029
# 230756
# 242124
# 252826
# 264877
# 277848
# 290092
#
# Disc length: 4017 seconds
#
#
# Revision: 7
# Processed by: cddbd v1.5.2PL0 Copyright (c) Steve Scherf et al.
# Submitted via: FreeRIP 2.96 
#
DISCID=510faf19
DTITLE=Sons of the Pioneers - My Saddle Pals and I - disc 3, Cigareetes, Whusky and Wild (Wild) Women
DYEAR=2005
DGENRE=Country
TTITLE0=Blue Prairie
TTITLE1=Baby Doll
TTITLE2=A Penny For Your Thoughts
TTITLE3=Have I Told You Lately That I Love You
TTITLE4=Let's Pretend
TTITLE5=Cigareetes, Whusky And Wild (Wild) Women
TTITLE6=Teardrops In My Heart
TTITLE7=My Best To You
TTITLE8=Will There Be Sagebrush In Heaven
TTITLE9=You Don't Know What Lonesome Is
TTITLE10=You'll Never Miss The Water 'Til The Well Runs Dry
TTITLE11=Lead Me Home Gentle Father
TTITLE12=Too High Too Wide Too Low
TTITLE13=Out In Pioneer Town
TTITLE14=A Hundred And Sixty Acres
TTITLE15=The Last Round-Up
TTITLE16=Cowboy Country
TTITLE17=The Bar-None Ranch
TTITLE18=Where Are You
TTITLE19=A Calico Apron And A Gingham Gown
TTITLE20=Happy Birthday Polka
TTITLE21=Santa Fe New Mexico
TTITLE22=Down Where The Rio Flows
TTITLE23=My Feet Takes Me Away
TTITLE24=Red River Valley
EXTD=
EXTT0=
EXTT1=
EXTT2=
EXTT3=
EXTT4=
EXTT5=
EXTT6=
EXTT7=
EXTT8=
EXTT9=
EXTT10=
EXTT11=
EXTT12=
EXTT13=
EXTT14=
EXTT15=
EXTT16=
EXTT17=
EXTT18=
EXTT19=
EXTT20=
EXTT21=
EXTT22=
EXTT23=
EXTT24=
PLAYORDER=
